<?xml version="1.0" encoding="UTF-8"?>
<svg width="250" height="26" fill="none" id="svg604790166_4279"><path fill-rule="evenodd" clip-rule="evenodd" d="M1.997 0C3.1 0 3.994.894 3.994 1.997v19.018a1.997 1.997 0 1 1-3.994 0V1.997C0 .894.894 0 1.997 0ZM124.3 11.357c-1.103 0-1.968.894-1.968 1.997v4.263a6.035 6.035 0 0 1-3.905 1.4h-.417a6.005 6.005 0 0 1-6.021-6.02v-.418a6.005 6.005 0 0 1 6.021-6.021h.417a6.09 6.09 0 0 1 3.279.954c.775.506 1.789.447 2.474-.18.447-.387.686-.983.626-1.579-.03-.626-.357-1.163-.864-1.52a10.325 10.325 0 0 0-5.515-1.67h-.417c-5.514 0-9.986 4.502-9.986 10.016v.417c0 5.515 4.472 9.986 9.986 9.986h.417a9.974 9.974 0 0 0 7.333-3.19 2 2 0 0 0 .537-1.34v-5.098a1.998 1.998 0 0 0-1.997-1.997Zm104.964-5.751c3.667 3.696 3.935 9.568.626 13.592l.716.865a1.97 1.97 0 0 1 .387 1.967 2.016 2.016 0 0 1-1.52 1.282 2.015 2.015 0 0 1-1.878-.686l-.775-.924a10.164 10.164 0 0 1-13.205-3.339c-2.861-4.351-1.997-10.164 2.057-13.443 4.024-3.309 9.896-3.01 13.592.686Zm-10.582 12.34c2.504 1.61 5.813 1.192 7.87-.954 1.103-1.162 1.729-2.682 1.699-4.292a6.198 6.198 0 0 0-5.038-6.11 6.27 6.27 0 0 0-6.945 3.815c-1.103 2.742-.089 5.932 2.414 7.541Zm22.614-7.632 4.143 1.222c2.713.834 4.561 3.07 4.561 5.574v.06a5.567 5.567 0 0 1-1.669 3.874 7.187 7.187 0 0 1-5.097 1.998h-.924c-2.415 0-4.531-1.103-5.724-2.802-.417-.596-.447-1.371-.119-2.027.358-.656 1.043-1.073 1.759-1.044.656 0 1.252.328 1.639.835.447.626 1.401 1.073 2.474 1.073h.895a3.266 3.266 0 0 0 2.295-.835c.298-.298.477-.685.507-1.073v-.06c0-.744-.716-1.46-1.729-1.758l-4.173-1.252c-2.713-.805-4.531-3.04-4.531-5.574 0-3.249 3.01-5.902 6.736-5.902h.895c2.414 0 4.56 1.133 5.753 2.802.417.626.476 1.401.119 2.057-.328.656-1.014 1.043-1.759 1.043a1.977 1.977 0 0 1-1.61-.835c-.476-.625-1.43-1.073-2.503-1.073h-.895c-1.49 0-2.772.865-2.772 1.908 0 .775.686 1.46 1.729 1.789Zm-50.316-7.69a1.998 1.998 0 0 1 1.997 1.996v19.018a1.997 1.997 0 1 1-3.994 0V6.618h-6.766a1.997 1.997 0 0 1 0-3.995h8.763Zm-180.328.113A1.997 1.997 0 0 0 7.988 4.62v16.395a1.997 1.997 0 1 0 3.995 0v-5.83l2.51 6.543a1.998 1.998 0 0 0 1.886 1.283 1.998 1.998 0 0 0 1.886-1.282l2.481-6.469v5.755a1.997 1.997 0 1 0 3.995 0V4.62a1.997 1.997 0 0 0-2.875-1.794 1.99 1.99 0 0 0-1.054 1.11l-4.433 11.557-4.433-11.557a1.994 1.994 0 0 0-1.294-1.199Zm83.482-.174c-5.634 0-10.195 4.59-10.195 10.225a10.19 10.19 0 0 0 10.195 10.194 10.19 10.19 0 0 0 10.194-10.194c0-5.634-4.59-10.195-10.194-10.225Zm0 16.425c-3.458 0-6.23-2.772-6.23-6.2a6.208 6.208 0 0 1 6.23-6.23 6.227 6.227 0 0 1 6.23 6.23 6.286 6.286 0 0 1-6.23 6.23v-.03ZM59.676 4.56c0-1.103.894-1.998 1.997-1.998 1.103 0 1.967.895 1.967 1.998v11.357c0 3.845-3.1 7.004-6.945 7.064-3.994.09-7.214-3.279-7.214-7.243V4.56c0-1.103.865-1.998 1.968-1.998s1.997.895 1.997 1.998v11.267a3.169 3.169 0 0 0 2.802 3.19 3.11 3.11 0 0 0 2.414-.805 3.095 3.095 0 0 0 1.014-2.296V4.562Zm20.27.06a1.997 1.997 0 0 0-3.995 0v8.07l-4.399-8.715a1.998 1.998 0 0 0-3.879.455 1.989 1.989 0 0 0-.009.35v16.234a1.997 1.997 0 0 0 3.995 0V13.05l4.441 8.8c.109.215.25.402.417.558a1.997 1.997 0 0 0 3.428-1.393V4.62Zm79.527 0a1.997 1.997 0 1 0-3.994 0v8.069l-4.51-8.935a1.994 1.994 0 0 0-1.262-1.028 1.997 1.997 0 0 0-2.634 1.893v16.395a1.997 1.997 0 1 0 3.994 0v-8.2l4.561 9.035c.109.215.251.402.417.558a1.997 1.997 0 0 0 3.428-1.393V4.62Zm-27.14-1.998h-.015a1.997 1.997 0 0 0-1.997 1.997v16.485c0 1.12.907 2.027 2.027 2.027h8.704a2.027 2.027 0 0 0 0-4.054h-6.737v-4.173h4.233a2.027 2.027 0 0 0 0-4.054h-4.233V6.677h6.737a2.027 2.027 0 0 0 0-4.054h-8.719Zm33.131 0h8.734a2.027 2.027 0 1 1 0 4.054h-6.736v4.173h4.232a2.027 2.027 0 1 1 0 4.054h-4.232v4.173h6.736a2.027 2.027 0 1 1 0 4.054h-8.704a2.027 2.027 0 0 1-2.027-2.027l.001-.045-.001-.044V4.62c0-1.103.894-1.997 1.997-1.997Zm33.519 0h-.014a1.998 1.998 0 0 0-1.998 1.997v16.395l.001.029v.052l-.001.008c0 1.12.908 2.027 2.027 2.027h8.704a2.027 2.027 0 1 0 0-4.054h-6.736v-4.173h4.233a2.026 2.026 0 0 0 0-4.054h-4.233V6.677h6.736a2.027 2.027 0 1 0 0-4.054h-8.719ZM35.239 21.73l-2.51-6.544v5.83a1.997 1.997 0 1 1-3.994 0V4.62a1.997 1.997 0 0 1 2.663-1.883 1.994 1.994 0 0 1 1.295 1.199l4.432 11.557 4.433-11.557a1.99 1.99 0 0 1 1.055-1.11 1.997 1.997 0 0 1 2.874 1.795v16.394a1.997 1.997 0 0 1-3.994 0V15.26l-2.481 6.469a1.998 1.998 0 0 1-1.887 1.282 1.998 1.998 0 0 1-1.886-1.282Z" fill="#0E454A"></path></svg>